# xmcd
#
# Track frame offsets: 
#        150
#        19295
#        38475
#        59787
#        80027
#        96100
#        114462
#        134412
#        151215
#        170645
#        192985
#
# Disc length: 2858 seconds
#
# Revision: 4
# Processed by: cddbd v1.5.2PL0 Copyright (c) Steve Scherf et al.
# Submitted via: ExactAudioCopy v1.1
#
DISCID=950b280b
DTITLE=高慧君 - 認真的女人最美麗
DYEAR=1999
DGENRE=Blues
TTITLE0=認真的女人最美麗
TTITLE1=管我快不快樂
TTITLE2=你是不愛我的,對嗎?
TTITLE3=雨季過後
TTITLE4=Asking For The Moon
TTITLE5=報應
TTITLE6=愛色
TTITLE7=YOU and I
TTITLE8=都是寂寞惹的禍
TTITLE9=Please Don't Go
TTITLE10=你最珍貴
EXTD=
EXTT0=
EXTT1=
EXTT2=
EXTT3=
EXTT4=
EXTT5=
EXTT6=
EXTT7=
EXTT8=
EXTT9=
EXTT10=
PLAYORDER=
